PathFileType	4	(X/Y/Z)	C:\Users\WrightLab\Desktop\Jo\P5V114.trc
DataRate	CameraRate	NumFrames	NumMarkers	Units	OrigDataRate	OrigDataStartFrame	OrigNumFrames
100.00	100.00	      12	19	mm	100.00	784	      1045
Frame#	Time	Headset_Front			Headset_Back			Headset_Left			Headset_Right			Left_Shoulder			Right_Shoulder			Sternum			C7			Left Elbow			Right Elbow			Left Wrist			Right Wrist			Left ASIS			Right ASIS			S2			Left Knee			Right Knee			Left Ankle			Right Ankle			
		X1	Y1	Z1	X2	Y2	Z2	X3	Y3	Z3	X4	Y4	Z4	X5	Y5	Z5	X6	Y6	Z6	X7	Y7	Z7	X8	Y8	Z8	X9	Y9	Z9	X10	Y10	Z10	X11	Y11	Z11	X12	Y12	Z12	X13	Y13	Z13	X14	Y14	Z14	X15	Y15	Z15	X16	Y16	Z16	X17	Y17	Z17	X18	Y18	Z18	X19	Y19	Z19	

784	7.830	229.88414	1431.92712	-324.32520	275.11459	1592.74280	-195.36813				316.19373	1519.29724	-410.27655	324.13889	1435.33191	-129.33002	618.20935	1517.00012	-385.70456	480.49884	1315.19690	-337.47534	538.55426	1542.81177	-162.65318	174.71404	1225.98560	-62.28678	815.55994	1306.31421	-414.96252	-34.89758	1111.24121	-122.16780	674.82556	1150.30164	-531.74261	413.88620	909.86359	-295.91275	678.64130	995.56451	-406.72644	635.60358	1019.29242	-96.06223	436.22321	496.67599	-237.95758	715.88416	536.07257	-415.74118	522.04437	99.41318	-98.51574	770.68945	122.52484	-423.39645	
785	7.840	230.50174	1431.64124	-327.48825	276.08344	1592.79285	-198.87270				316.21341	1518.79773	-414.72351	325.91916	1435.46387	-132.28401	618.09589	1516.39600	-391.37421	480.34406	1314.43982	-341.32925	540.69067	1542.98279	-167.75122	177.77524	1225.56592	-64.27202	814.98621	1305.46216	-421.65097	-32.16238	1110.73633	-121.74883	673.75568	1149.35095	-538.21191	413.74670	909.48486	-298.51581	679.20978	996.09155	-413.61526	636.66583	1019.21112	-100.90378	437.64087	496.72513	-238.63515	715.37549	535.49213	-421.09811	522.06342	99.44962	-98.52579	765.49225	122.14056	-435.02911	
786	7.850	231.22052	1431.57849	-330.10950	277.60446	1593.08313	-202.96803				316.25964	1518.97205	-418.53809	327.44348	1435.74268	-135.26683	617.94653	1515.69324	-397.10486	479.79648	1314.53821	-345.32391	542.07068	1542.94702	-173.02803	180.44492	1225.84814	-65.64747	814.82800	1304.84314	-428.49625	-29.34410	1110.53284	-120.87886	671.76550	1149.41333	-544.59033	413.69080	908.85339	-301.11026	675.23004	994.08844	-415.29776	637.66150	1018.99463	-105.74981	439.01077	496.39069	-239.42081	714.89911	535.36530	-425.93710	522.07629	99.50327	-98.54646	760.74048	121.48210	-446.08411	
787	7.860	231.72656	1431.66113	-333.62222	278.74463	1593.41418	-206.92339				316.34430	1518.68372	-422.95544	328.47049	1435.92786	-138.47360	617.96173	1515.00330	-402.29825	479.61905	1314.25085	-349.59897	543.07257	1542.86011	-177.87979	183.92213	1225.44763	-65.93190	813.26331	1303.62793	-434.63766	-26.26369	1110.57007	-120.10011	670.27563	1149.06885	-550.85095	413.59641	908.44159	-304.41565	676.02374	995.54224	-422.39673	639.41821	1018.91827	-110.91774	440.03613	496.18320	-240.28624	714.44647	534.55585	-430.68387	522.06128	99.51771	-98.56316	755.87775	121.13979	-455.42923	
788	7.870	232.45149	1431.51978	-336.68713	279.98849	1593.91858	-211.17285				316.42926	1518.82092	-426.80692	330.81647	1436.35327	-141.63857	617.63483	1514.53149	-408.64310	479.12732	1314.19507	-353.56088	544.38318	1542.76013	-183.32068	186.63976	1225.44604	-66.80685	812.71869	1303.03955	-441.72528	-23.39464	1110.20630	-120.40337	667.98694	1148.21838	-556.71851	413.09274	908.25781	-308.00543	675.23889	993.44971	-427.09924	641.12823	1018.63983	-116.06959	441.15036	496.08517	-241.37129	713.51947	534.24969	-435.69681	522.10931	99.60052	-98.59824	751.27289	120.41057	-464.34088	
789	7.880	232.65492	1431.80322	-341.51071	280.72363	1593.98547	-215.01682				316.64163	1518.84338	-431.42184	331.80948	1437.10339	-145.20470	617.48590	1513.63025	-414.51065	478.94940	1313.71570	-357.85846	546.30933	1542.86292	-189.14325	190.17302	1225.09009	-67.72572	812.38177	1302.07642	-448.27081	-20.05728	1110.10925	-120.04273	666.92633	1147.67590	-562.39386	412.58405	907.96893	-311.97763	672.17438	991.45410	-428.39758	642.23273	1018.77264	-121.00954	441.91913	495.96149	-242.13399	712.67603	533.62225	-440.52109	522.05884	100.33031	-99.21432	746.69397	120.14050	-472.25021	
790	7.890	233.17493	1431.91040	-345.01184	281.94641	1594.12805	-219.26764				316.80753	1518.76904	-435.58716	333.75690	1436.87598	-148.37595	617.19360	1513.11694	-420.79752	479.01657	1313.32617	-362.92902	547.51239	1542.77625	-194.61285	193.13733	1225.02405	-68.11333	811.65631	1300.59131	-454.94711	-17.10686	1109.84583	-120.09309	665.80872	1146.63062	-568.68176	412.36526	908.01202	-314.54050	671.85712	991.17072	-433.57211	643.36987	1018.64386	-125.96114	442.95193	495.65314	-243.88922	711.38916	533.72681	-445.63126	522.47327	100.39612	-99.39497	741.95929	119.61784	-479.24744	
791	7.900	233.71025	1431.97742	-348.51175	282.92734	1594.18018	-223.41676				316.86182	1518.84534	-439.85022	335.69879	1436.76196	-152.35289	616.88477	1512.57605	-426.80234	478.80042	1312.96948	-367.33521	548.88739	1542.68384	-200.30844	197.08762	1224.22498	-70.23591	811.21088	1300.22559	-462.48737	-13.58087	1109.44312	-119.90495	663.98230	1146.05286	-574.86798	412.00134	907.64288	-317.96887	669.71277	989.94482	-438.43311	644.99011	1018.59003	-131.23920	443.68362	495.44403	-244.96718	710.26990	533.22845	-450.43033	522.63660	100.57014	-99.45457	737.83307	119.18884	-486.09000	
792	7.910	233.93205	1432.49487	-353.06958	283.88043	1594.64832	-227.95555				317.05124	1518.69946	-444.23846	336.61877	1437.00269	-155.67328	616.99786	1511.70349	-432.11459	478.70853	1312.64709	-371.81924	549.61652	1542.58411	-205.67203	200.56314	1223.59656	-71.20619	810.53357	1298.64221	-468.47403	-10.29897	1108.85022	-120.34934	661.97998	1145.24475	-581.42297	411.87247	907.74463	-321.33212	668.75891	989.54578	-443.04553	646.39923	1018.35291	-136.51160	444.63214	495.06430	-247.12601	709.02283	532.48181	-455.00870	522.81824	100.86420	-99.90922	733.41302	118.00262	-491.12540	
793	7.920	234.45535	1432.48315	-356.58096	285.45996	1594.80164	-233.01718				317.12326	1518.38269	-449.38953	338.64804	1437.04358	-159.72031	616.89771	1510.84497	-438.08020	478.25882	1312.43970	-376.65366	551.06061	1542.63818	-211.54456	204.02902	1223.72473	-71.97282	809.82483	1298.08838	-475.59732	-6.57955	1108.61279	-120.62786	660.88123	1145.06262	-586.68402	411.36319	907.16699	-325.49332	667.15668	987.89880	-447.81204	647.49365	1018.24414	-141.55719	445.26260	494.96002	-248.81572	708.43030	532.23047	-459.68704	522.87750	101.05618	-99.96159	729.54395	117.89939	-495.89752	
794	7.930	234.60139	1432.78662	-362.02844	286.18741	1595.07629	-237.57784				317.18710	1518.76575	-453.91666	339.45612	1437.15222	-163.32433	616.71313	1510.01111	-444.15024	478.06824	1311.89575	-381.42014	552.82538	1542.68140	-217.63434	207.19000	1223.13794	-74.54048	809.09314	1297.19800	-482.26968	-3.17016	1108.33606	-120.74177	660.49921	1144.18762	-593.22650	410.73175	906.98682	-329.18140	666.02173	987.38452	-452.78833	649.47137	1018.01538	-147.09181	446.17673	494.50546	-251.73357	707.24969	531.49780	-463.55374	522.89844	101.33783	-100.12392	725.44427	116.28859	-500.04117	
795	7.940	234.87955	1432.93518	-366.43082	287.67065	1595.14990	-242.69250				317.63940	1518.39148	-458.71783	340.72742	1436.57874	-167.96175	616.48029	1509.17419	-450.43930	478.09195	1311.47412	-386.43375	554.02502	1542.30103	-223.09451	210.92920	1222.68018	-76.61215	807.53857	1295.75500	-489.30417	0.82235	1107.73218	-122.41130	660.42529	1143.91309	-601.19086	410.29800	906.97400	-333.01944	665.56982	986.70074	-457.45276	650.54211	1017.43390	-153.41553	446.77875	494.20386	-254.55563	705.33112	530.63629	-468.76578	522.69812	102.28586	-100.46255	721.97229	115.50664	-503.80829	
